<svg xmlns="http://www.w3.org/2000/svg" width="24" height="24" viewBox="0 0 24 24" fill="none">
  <path d="M8.99843 9.72778C9.36487 9.53557 9.81754 9.67719 10.0095 10.0441C10.1995 10.4073 10.485 10.7116 10.8352 10.9241C11.1853 11.1366 11.5868 11.2493 11.9963 11.25C12.4057 11.2507 12.8076 11.1393 13.1585 10.9279C13.5093 10.7166 13.7958 10.4132 13.987 10.0507C14.1802 9.68441 14.6334 9.54429 14.9992 9.73771C15.365 9.93114 15.5049 10.3849 15.3117 10.7511C14.993 11.3554 14.5155 11.861 13.9308 12.2132C13.346 12.5655 12.6762 12.7511 11.9938 12.75C11.3114 12.7489 10.6422 12.561 10.0586 12.2068C9.47504 11.8526 8.9992 11.3455 8.68251 10.7402C8.49055 10.3733 8.63199 9.92 8.99843 9.72778Z" fill="white"/>
  <path fill-rule="evenodd" clip-rule="evenodd" d="M8.32977 6C8.67678 4.28832 10.1881 3 12 3C13.8119 3 15.3232 4.28832 15.6702 6H16.7905C17.8437 6 18.7556 6.73245 18.9841 7.76191L20.9093 16.4365C21.4291 18.7784 19.6493 21 17.2533 21H6.74666C4.35072 21 2.57095 18.7784 3.0907 16.4365L5.0159 7.76191C5.24437 6.73245 6.15627 6 7.20947 6H8.32977ZM9.88078 6C10.1893 5.12611 11.0216 4.5 12 4.5C12.9784 4.5 13.8107 5.12611 14.1192 6H9.88078ZM7.20947 7.5C6.8584 7.5 6.55444 7.74415 6.47828 8.0873L4.55309 16.7619C4.24123 18.1671 5.30909 19.5 6.74666 19.5H17.2533C18.6909 19.5 19.7588 18.1671 19.4469 16.7619L17.5217 8.0873C17.4456 7.74415 17.1416 7.5 16.7905 7.5H7.20947Z" fill="white"/>
</svg>