<svg width="230" height="42" viewBox="0 0 230 42" fill="none" xmlns="http://www.w3.org/2000/svg">
<path d="M37.8651 17.271C37.8651 17.7097 37.5726 18.0022 37.1339 18.0022H23.2424C22.8037 18.0022 22.5112 17.7097 22.5112 17.271V15.6625C22.5112 15.2239 22.8037 14.9314 23.2424 14.9314H37.1339C37.5726 14.9314 37.8651 15.2239 37.8651 15.6625V17.271Z" fill="white"/>
<path d="M44.0069 21.8042C44.0069 22.2429 43.7144 22.5354 43.2757 22.5354H26.1672C25.7285 22.5354 25.436 22.2429 25.436 21.8042V20.1957C25.436 19.7571 25.7285 19.4646 26.1672 19.4646H43.1295C43.5682 19.4646 43.8606 19.7571 43.8606 20.1957L44.0069 21.8042Z" fill="white"/>
<path d="M48.6854 26.4834C48.6854 26.9221 48.393 27.2146 47.9543 27.2146H29.3835C28.9448 27.2146 28.6523 26.9221 28.6523 26.4834V24.8749C28.6523 24.4363 28.9448 24.1438 29.3835 24.1438H47.9543C48.393 24.1438 48.6854 24.4363 48.6854 24.8749V26.4834Z" fill="white"/>
<path d="M48.6854 31.1626C48.6854 31.6013 48.393 31.8938 47.9543 31.8938H29.3835C28.9448 31.8938 28.6523 31.6013 28.6523 31.1626V29.5541C28.6523 29.1155 28.9448 28.823 29.3835 28.823H47.9543C48.393 28.823 48.6854 29.1155 48.6854 29.5541V31.1626Z" fill="white"/>
<path d="M44.0069 35.6956C44.0069 36.1343 43.7144 36.4267 43.2757 36.4267H26.1672C25.7285 36.4267 25.436 36.1343 25.436 35.6956V34.0871C25.436 33.6484 25.7285 33.356 26.1672 33.356H43.1295C43.5682 33.356 43.8606 33.6484 43.8606 34.0871L44.0069 35.6956Z" fill="white"/>
<path d="M37.8651 40.3753C37.8651 40.814 37.5726 41.1064 37.1339 41.1064H23.2424C22.8037 41.1064 22.5112 40.814 22.5112 40.3753V38.7668C22.5112 38.3281 22.8037 38.0356 23.2424 38.0356H37.1339C37.5726 38.0356 37.8651 38.3281 37.8651 38.7668V40.3753Z" fill="white"/>
<path d="M11.5449 3.23319C11.5449 3.67187 11.8374 3.96432 12.2761 3.96432H26.1676C26.6063 3.96432 26.8987 3.67187 26.8987 3.23319V1.62469C26.8987 1.18601 26.6063 0.893555 26.1676 0.893555H12.2761C11.8374 0.893555 11.5449 1.18601 11.5449 1.62469V3.23319Z" fill="white"/>
<path d="M5.54932 7.91238C5.54932 8.35107 5.84177 8.64352 6.28045 8.64352H23.2428C23.6815 8.64352 23.9739 8.35107 23.9739 7.91238V6.30389C23.9739 5.86521 23.6815 5.57275 23.2428 5.57275H6.28045C5.84177 5.57275 5.54932 5.86521 5.54932 6.30389V7.91238Z" fill="white"/>
<path d="M0.869629 12.5916C0.869629 13.0303 1.16208 13.3227 1.60076 13.3227H20.1716C20.6103 13.3227 20.9027 13.0303 20.9027 12.5916V10.9831C20.9027 10.5444 20.6103 10.252 20.1716 10.252H1.60076C1.16208 10.252 0.869629 10.5444 0.869629 10.9831V12.5916Z" fill="white"/>
<path d="M0.869629 17.271C0.869629 17.7097 1.16208 18.0022 1.60076 18.0022H20.1716C20.6103 18.0022 20.9027 17.7097 20.9027 17.271V15.6625C20.9027 15.2239 20.6103 14.9314 20.1716 14.9314H1.60076C1.16208 14.9314 0.869629 15.2239 0.869629 15.6625V17.271Z" fill="white"/>
<path d="M5.54932 21.8042C5.54932 22.2429 5.84177 22.5354 6.28045 22.5354H23.2428C23.6815 22.5354 23.9739 22.2429 23.9739 21.8042V20.1957C23.9739 19.7571 23.6815 19.4646 23.2428 19.4646H6.28045C5.84177 19.4646 5.54932 19.7571 5.54932 20.1957V21.8042Z" fill="white"/>
<path d="M11.5449 26.4832C11.5449 26.9219 11.8374 27.2143 12.2761 27.2143H26.1676C26.6063 27.2143 26.8987 26.9219 26.8987 26.4832V24.8747C26.8987 24.436 26.6063 24.1436 26.1676 24.1436H12.2761C11.8374 24.1436 11.5449 24.436 11.5449 24.8747V26.4832Z" fill="white"/>
<path d="M66.9653 30.1392C66.2341 30.2854 65.503 30.2854 64.7719 30.2854C62.8709 30.2854 61.4086 29.9929 60.385 29.408C59.5077 28.8231 58.7765 27.9458 58.4841 26.6297C58.1916 25.3137 58.0454 23.4127 58.0454 20.9269C58.0454 18.441 58.1916 16.5401 58.4841 15.224C58.7765 13.908 59.3615 13.0306 60.385 12.4457C61.2624 11.8608 62.7247 11.5684 64.7719 11.5684C65.503 11.5684 66.0879 11.5684 66.819 11.7146C67.5502 11.8608 68.1351 12.007 68.5737 12.007V15.224C67.1115 15.0778 66.0879 14.9316 65.6492 14.9316C64.4794 14.9316 63.602 15.0778 63.1634 15.224C62.7247 15.3703 62.4322 15.9552 62.286 16.6863C62.1398 17.4174 62.1398 18.7335 62.1398 20.7807C62.1398 22.8278 62.1398 24.1439 62.286 24.875C62.4322 25.6061 62.7247 26.0448 63.1634 26.3373C63.602 26.6297 64.4794 26.6297 65.6492 26.6297C66.6728 26.6297 67.6964 26.4835 68.72 26.3373V29.5543C68.4275 29.8467 67.6964 29.9929 66.9653 30.1392Z" fill="white"/>
<path d="M73.2523 29.4078C72.3749 28.8229 71.79 28.0918 71.4975 26.7757C71.2051 25.6059 71.2051 23.5587 71.2051 20.9267C71.2051 18.1483 71.3513 16.2474 71.4975 15.0776C71.6438 13.9078 72.2287 13.0304 73.2523 12.4455C74.1296 11.8606 75.7381 11.7144 77.9315 11.7144C80.1249 11.7144 81.7334 12.0068 82.6108 12.4455C83.4881 13.0304 84.073 13.7615 84.3655 15.0776C84.658 16.2474 84.658 18.1483 84.658 20.9267C84.658 23.705 84.5117 25.6059 84.3655 26.7757C84.073 27.9455 83.6344 28.8229 82.6108 29.4078C81.5872 29.9927 80.1249 30.1389 77.9315 30.1389C75.7381 30.2852 73.9834 29.9927 73.2523 29.4078ZM79.8325 26.4833C80.1249 26.337 80.4174 25.7521 80.4174 25.1672C80.5636 24.4361 80.5636 22.9738 80.5636 20.9267C80.5636 18.8795 80.5636 17.4172 80.4174 16.6861C80.2712 15.9549 80.1249 15.5163 79.8325 15.37C79.54 15.2238 78.8089 15.0776 77.9315 15.0776C77.0542 15.0776 76.323 15.2238 76.0306 15.37C75.7381 15.5163 75.4457 16.1012 75.4457 16.6861C75.2994 17.4172 75.2994 18.8795 75.2994 20.9267C75.2994 22.9738 75.2994 24.4361 75.4457 25.1672C75.5919 25.8984 75.7381 26.337 76.0306 26.4833C76.323 26.6295 77.0542 26.7757 77.9315 26.7757C78.8089 26.7757 79.3938 26.7757 79.8325 26.4833Z" fill="white"/>
<path d="M96.9415 29.993L91.6774 19.6109H91.5311V29.993H87.583V11.8608H91.6774L96.6491 21.3656H96.7953V11.8608H100.743V29.993H96.9415Z" fill="white"/>
<path d="M106.884 29.993V15.5165H102.644V12.0071H115.219V15.5165H110.978V29.993H106.884Z" fill="white"/>
<path d="M117.12 29.993V11.8608H127.941V15.2241H121.068V19.026H126.917V22.3892H121.068V26.4835H127.941V29.8467H117.12V29.993Z" fill="white"/>
<path d="M140.224 29.993L134.96 19.6109H134.814V29.993H130.866V11.8608H134.96L139.932 21.3656H140.078V11.8608H144.026V29.993H140.224Z" fill="white"/>
<path d="M150.314 29.993V15.5165H146.073V12.0071H158.649V15.5165H154.408V29.993H150.314Z" fill="white"/>
<path d="M160.55 29.8467V26.6297C162.744 26.776 164.206 26.9222 165.229 26.9222C165.961 26.9222 166.546 26.9222 166.984 26.776C167.423 26.6297 167.715 26.6297 167.862 26.4835C168.008 26.3373 168.154 26.1911 168.154 25.8986V24.875C168.154 24.2901 168.154 23.8514 168.008 23.7052C167.862 23.4127 167.715 23.2665 167.569 23.1203C167.277 22.9741 166.984 22.8278 166.399 22.8278L163.475 22.3891C162.159 22.2429 161.281 21.658 160.696 20.7807C160.112 19.9033 159.965 18.7335 159.965 17.125C159.965 15.6627 160.258 14.4929 160.696 13.6155C161.135 12.8844 161.866 12.2995 162.744 12.007C163.621 11.7146 164.791 11.5684 166.107 11.5684C167.715 11.5684 169.47 11.7146 171.225 12.1533V15.3703C169.616 15.224 168.3 15.0778 166.984 15.0778C165.668 15.0778 164.791 15.224 164.498 15.3703C164.206 15.5165 164.206 15.6627 164.06 15.9552C163.913 16.2476 163.913 16.5401 163.913 16.9788C163.913 17.4174 163.913 17.8561 164.06 18.0023C164.206 18.1486 164.206 18.2948 164.352 18.441C164.498 18.5873 164.791 18.5873 165.376 18.7335L168.446 19.1722C169.178 19.3184 169.763 19.4646 170.201 19.7571C170.64 20.0495 171.079 20.4882 171.371 21.0731C171.663 21.8042 171.956 22.9741 171.956 24.4363C171.956 26.1911 171.663 27.3609 171.225 28.2382C170.786 29.1156 170.055 29.7005 169.324 29.9929C168.593 30.2854 167.423 30.4316 166.107 30.4316C163.913 30.2854 162.013 29.9929 160.55 29.8467Z" fill="white"/>
<path d="M177.512 29.993V15.5165H173.271V12.0071H185.847V15.5165H181.606V29.993H177.512Z" fill="white"/>
<path d="M196.815 29.993L195.937 26.3373H190.527L189.65 29.993H185.555L190.381 11.8608H196.084L200.909 29.993H196.815ZM193.159 15.6627L191.258 22.9741H194.914L193.159 15.6627Z" fill="white"/>
<path d="M211.144 30.1392C210.413 30.2854 209.682 30.2854 208.951 30.2854C207.05 30.2854 205.588 29.9929 204.564 29.408C203.541 28.8231 202.956 27.9458 202.663 26.6297C202.371 25.3137 202.225 23.4127 202.225 20.9269C202.225 18.441 202.371 16.5401 202.663 15.224C202.956 13.908 203.541 13.0306 204.564 12.4457C205.442 11.8608 206.904 11.5684 208.951 11.5684C209.682 11.5684 210.267 11.5684 210.998 11.7146C211.729 11.8608 212.314 12.007 212.753 12.007V15.224C211.291 15.0778 210.267 14.9316 209.828 14.9316C208.659 14.9316 207.781 15.0778 207.343 15.224C206.904 15.5165 206.611 15.9552 206.465 16.6863C206.319 17.4174 206.319 18.7335 206.319 20.7807C206.319 22.8278 206.319 24.1439 206.465 24.875C206.611 25.6061 206.904 26.0448 207.343 26.3373C207.781 26.6297 208.659 26.6297 209.828 26.6297C210.852 26.6297 211.876 26.4835 212.899 26.3373V29.5543C212.46 29.8467 211.876 29.9929 211.144 30.1392Z" fill="white"/>
<path d="M224.744 29.993L220.649 22.5354H219.48V29.993H215.385V11.8608H219.48V19.026H220.649L224.744 11.8608H229.131L223.866 20.4882L229.131 29.8467L224.744 29.993Z" fill="white"/>
</svg>
