<svg width="292" height="333" viewBox="0 0 292 333" fill="none" xmlns="http://www.w3.org/2000/svg">
<g style="mix-blend-mode:multiply">
<path d="M227.981 245.22L300.544 278.97C304.726 280.915 309.555 280.904 313.728 278.94L385.446 245.191C397.23 239.645 397.389 222.939 385.714 217.17L313.994 181.732C309.674 179.597 304.608 179.586 300.277 181.701L227.715 217.138C215.953 222.882 216.113 239.699 227.981 245.22Z" fill="#CDD8E8" stroke="white" stroke-width="9.12853" stroke-linejoin="round"/>
<path d="M227.981 217.834L300.544 251.584C304.726 253.529 309.555 253.518 313.728 251.555L385.446 217.805C397.23 212.26 397.389 195.554 385.714 189.785L313.994 154.347C309.674 152.212 304.608 152.2 300.277 154.315L227.715 189.752C215.953 195.496 216.113 212.314 227.981 217.834Z" fill="#CDD8E8" stroke="white" stroke-width="9.12853" stroke-linejoin="round"/>
<path d="M227.981 189.872L300.544 223.622C304.726 225.567 309.555 225.556 313.728 223.593L385.446 189.843C397.23 184.297 397.389 167.592 385.714 161.822L313.994 126.385C309.674 124.25 304.608 124.238 300.277 126.353L227.715 161.79C215.953 167.534 216.113 184.352 227.981 189.872Z" fill="#CDD8E8" stroke="white" stroke-width="9.12853" stroke-linejoin="round"/>
<circle cx="307.13" cy="152.159" r="42.2195" fill="#CDD8E8" stroke="white" stroke-width="6.8464"/>
<path d="M227.981 123.546L300.544 157.297C304.726 159.242 309.555 159.231 313.728 157.267L385.446 123.517C397.23 117.972 397.389 101.266 385.714 95.4969L313.994 60.0591C309.674 57.9242 304.608 57.9125 300.277 60.0274L227.715 95.4646C215.953 101.209 216.113 118.026 227.981 123.546Z" fill="#CDD8E8" stroke="white" stroke-width="9.12853" stroke-linejoin="round"/>
<path d="M227.981 96.161L300.544 129.911C304.726 131.856 309.555 131.845 313.728 129.882L385.446 96.1319C397.23 90.5865 397.389 73.8808 385.714 68.1115L313.994 32.6737C309.674 30.5389 304.608 30.5271 300.277 32.642L227.715 68.0792C215.953 73.8234 216.113 90.6407 227.981 96.161Z" fill="#CDD8E8" stroke="white" stroke-width="9.12853" stroke-linejoin="round"/>
<path d="M227.981 69.7103L300.544 103.461C304.726 105.406 309.555 105.395 313.728 103.431L385.446 69.6813C397.23 64.1359 397.389 47.4301 385.714 41.6608L313.994 6.22304C309.674 4.08818 304.608 4.07645 300.277 6.19129L227.715 41.6285C215.953 47.3727 216.113 64.1901 227.981 69.7103Z" fill="#CDD8E8" stroke="white" stroke-width="9.12853" stroke-linejoin="round"/>
</g>
<g opacity="0.6">
<path d="M0.397809 269.222C0.0749151 269.554 0.0827677 270.085 0.415349 270.408C0.747929 270.731 1.2793 270.723 1.60219 270.391L0.397809 269.222ZM12.3307 258.988C12.3238 258.524 11.9425 258.154 11.479 258.161L3.92603 258.272C3.46254 258.279 3.09236 258.661 3.09921 259.124C3.10606 259.588 3.48734 259.958 3.95083 259.951L10.6646 259.852L10.7638 266.565C10.7707 267.029 11.152 267.399 11.6155 267.392C12.079 267.385 12.4491 267.004 12.4423 266.541L12.3307 258.988ZM1.60219 270.391L12.0936 259.585L10.8893 258.415L0.397809 269.222L1.60219 270.391Z" fill="#CDD8E8"/>
<path d="M21.5775 269.222C21.2546 269.554 21.2625 270.085 21.595 270.408C21.9276 270.731 22.459 270.723 22.7819 270.391L21.5775 269.222ZM33.5104 258.988C33.5035 258.524 33.1222 258.154 32.6587 258.161L25.1057 258.272C24.6422 258.279 24.272 258.661 24.2789 259.124C24.2857 259.588 24.667 259.958 25.1305 259.951L31.8443 259.852L31.9435 266.565C31.9504 267.029 32.3317 267.399 32.7952 267.392C33.2586 267.385 33.6288 267.004 33.622 266.541L33.5104 258.988ZM22.7819 270.391L33.2733 259.585L32.0689 258.415L21.5775 269.222L22.7819 270.391Z" fill="#CDD8E8"/>
<path d="M42.7582 269.222C42.4353 269.554 42.4431 270.085 42.7757 270.408C43.1083 270.731 43.6396 270.723 43.9625 270.391L42.7582 269.222ZM54.691 258.988C54.6842 258.524 54.3029 258.154 53.8394 258.161L46.2864 258.272C45.8229 258.279 45.4527 258.661 45.4596 259.124C45.4664 259.588 45.8477 259.958 46.3112 259.951L53.025 259.852L53.1242 266.565C53.131 267.029 53.5123 267.399 53.9758 267.392C54.4393 267.385 54.8095 267.004 54.8026 266.541L54.691 258.988ZM43.9625 270.391L54.454 259.585L53.2496 258.415L42.7582 269.222L43.9625 270.391Z" fill="#CDD8E8"/>
<path d="M63.9378 269.222C63.615 269.554 63.6228 270.085 63.9554 270.408C64.288 270.731 64.8193 270.723 65.1422 270.391L63.9378 269.222ZM75.8707 258.988C75.8639 258.524 75.4826 258.154 75.0191 258.161L67.4661 258.272C67.0026 258.279 66.6324 258.661 66.6392 259.124C66.6461 259.588 67.0274 259.958 67.4909 259.951L74.2047 259.852L74.3039 266.565C74.3107 267.029 74.692 267.399 75.1555 267.392C75.619 267.385 75.9892 267.004 75.9823 266.541L75.8707 258.988ZM65.1422 270.391L75.6337 259.585L74.4293 258.415L63.9378 269.222L65.1422 270.391Z" fill="#CDD8E8"/>
<path d="M85.1175 269.222C84.7946 269.554 84.8025 270.085 85.1351 270.408C85.4677 270.731 85.999 270.723 86.3219 270.391L85.1175 269.222ZM97.0504 258.988C97.0435 258.524 96.6623 258.154 96.1988 258.161L88.6458 258.272C88.1823 258.279 87.8121 258.661 87.8189 259.124C87.8258 259.588 88.2071 259.958 88.6706 259.951L95.3844 259.852L95.4836 266.565C95.4904 267.029 95.8717 267.399 96.3352 267.392C96.7987 267.385 97.1689 267.004 97.162 266.541L97.0504 258.988ZM86.3219 270.391L96.8134 259.585L95.609 258.415L85.1175 269.222L86.3219 270.391Z" fill="#CDD8E8"/>
<path d="M106.298 269.222C105.975 269.554 105.983 270.085 106.315 270.408C106.648 270.731 107.179 270.723 107.502 270.391L106.298 269.222ZM118.231 258.988C118.224 258.524 117.842 258.154 117.379 258.161L109.826 258.272C109.362 258.279 108.992 258.661 108.999 259.124C109.006 259.588 109.387 259.958 109.851 259.951L116.565 259.852L116.664 266.565C116.671 267.029 117.052 267.399 117.515 267.392C117.979 267.385 118.349 267.004 118.342 266.541L118.231 258.988ZM107.502 270.391L117.994 259.585L116.789 258.415L106.298 269.222L107.502 270.391Z" fill="#CDD8E8"/>
<path d="M127.478 269.222C127.155 269.554 127.163 270.085 127.495 270.408C127.828 270.731 128.359 270.723 128.682 270.391L127.478 269.222ZM139.411 258.988C139.404 258.524 139.023 258.154 138.559 258.161L131.006 258.272C130.543 258.279 130.172 258.661 130.179 259.124C130.186 259.588 130.567 259.958 131.031 259.951L137.745 259.852L137.844 266.565C137.851 267.029 138.232 267.399 138.696 267.392C139.159 267.385 139.529 267.004 139.522 266.541L139.411 258.988ZM128.682 270.391L139.174 259.585L137.969 258.415L127.478 269.222L128.682 270.391Z" fill="#CDD8E8"/>
<path d="M148.658 269.222C148.335 269.554 148.343 270.085 148.676 270.408C149.008 270.731 149.54 270.723 149.862 270.391L148.658 269.222ZM160.591 258.988C160.584 258.524 160.203 258.154 159.739 258.161L152.186 258.272C151.723 258.279 151.353 258.661 151.359 259.124C151.366 259.588 151.748 259.958 152.211 259.951L158.925 259.852L159.024 266.565C159.031 267.029 159.412 267.399 159.876 267.392C160.339 267.385 160.709 267.004 160.703 266.541L160.591 258.988ZM149.862 270.391L160.354 259.585L159.15 258.415L148.658 269.222L149.862 270.391Z" fill="#CDD8E8"/>
<path d="M169.838 269.222C169.515 269.554 169.523 270.085 169.855 270.408C170.188 270.731 170.719 270.723 171.042 270.391L169.838 269.222ZM181.771 258.988C181.764 258.524 181.382 258.154 180.919 258.161L173.366 258.272C172.902 258.279 172.532 258.661 172.539 259.124C172.546 259.588 172.927 259.958 173.391 259.951L180.105 259.852L180.204 266.565C180.211 267.029 180.592 267.399 181.055 267.392C181.519 267.385 181.889 267.004 181.882 266.541L181.771 258.988ZM171.042 270.391L181.534 259.585L180.329 258.415L169.838 269.222L171.042 270.391Z" fill="#CDD8E8"/>
<path d="M191.017 269.222C190.695 269.554 190.702 270.085 191.035 270.408C191.368 270.731 191.899 270.723 192.222 270.391L191.017 269.222ZM202.95 258.988C202.943 258.524 202.562 258.154 202.099 258.161L194.546 258.272C194.082 258.279 193.712 258.661 193.719 259.124C193.726 259.588 194.107 259.958 194.57 259.951L201.284 259.852L201.383 266.565C201.39 267.029 201.772 267.399 202.235 267.392C202.699 267.385 203.069 267.004 203.062 266.541L202.95 258.988ZM192.222 270.391L202.713 259.585L201.509 258.415L191.017 269.222L192.222 270.391Z" fill="#CDD8E8"/>
<path d="M212.198 269.222C211.875 269.554 211.883 270.085 212.215 270.408C212.548 270.731 213.079 270.723 213.402 270.391L212.198 269.222ZM224.13 258.988C224.124 258.524 223.742 258.154 223.279 258.161L215.726 258.272C215.262 258.279 214.892 258.661 214.899 259.124C214.906 259.588 215.287 259.958 215.751 259.951L222.464 259.852L222.564 266.565C222.57 267.029 222.952 267.399 223.415 267.392C223.879 267.385 224.249 267.004 224.242 266.541L224.13 258.988ZM213.402 270.391L223.893 259.585L222.689 258.415L212.198 269.222L213.402 270.391Z" fill="#CDD8E8"/>
<path d="M233.378 269.222C233.055 269.554 233.063 270.085 233.395 270.408C233.728 270.731 234.259 270.723 234.582 270.391L233.378 269.222ZM245.311 258.988C245.304 258.524 244.923 258.154 244.459 258.161L236.906 258.272C236.443 258.279 236.072 258.661 236.079 259.124C236.086 259.588 236.467 259.958 236.931 259.951L243.645 259.852L243.744 266.565C243.751 267.029 244.132 267.399 244.595 267.392C245.059 267.385 245.429 267.004 245.422 266.541L245.311 258.988ZM234.582 270.391L245.074 259.585L243.869 258.415L233.378 269.222L234.582 270.391Z" fill="#CDD8E8"/>
<path d="M254.558 269.222C254.235 269.554 254.243 270.085 254.576 270.408C254.908 270.731 255.439 270.723 255.762 270.391L254.558 269.222ZM266.491 258.988C266.484 258.524 266.103 258.154 265.639 258.161L258.086 258.272C257.623 258.279 257.253 258.661 257.259 259.124C257.266 259.588 257.647 259.958 258.111 259.951L264.825 259.852L264.924 266.565C264.931 267.029 265.312 267.399 265.776 267.392C266.239 267.385 266.609 267.004 266.602 266.541L266.491 258.988ZM255.762 270.391L266.254 259.585L265.049 258.415L254.558 269.222L255.762 270.391Z" fill="#CDD8E8"/>
<path d="M275.738 269.222C275.415 269.554 275.423 270.085 275.755 270.408C276.088 270.731 276.619 270.723 276.942 270.391L275.738 269.222ZM287.671 258.988C287.664 258.524 287.282 258.154 286.819 258.161L279.266 258.272C278.802 258.279 278.432 258.661 278.439 259.124C278.446 259.588 278.827 259.958 279.291 259.951L286.004 259.852L286.104 266.565C286.111 267.029 286.492 267.399 286.955 267.392C287.419 267.385 287.789 267.004 287.782 266.541L287.671 258.988ZM276.942 270.391L287.433 259.585L286.229 258.415L275.738 269.222L276.942 270.391Z" fill="#CDD8E8"/>
<path d="M0.397809 289.953C0.0749151 290.285 0.0827677 290.817 0.415349 291.14C0.747929 291.463 1.2793 291.455 1.60219 291.122L0.397809 289.953ZM12.3307 279.719C12.3238 279.255 11.9425 278.885 11.479 278.892L3.92603 279.004C3.46254 279.011 3.09236 279.392 3.09921 279.855C3.10606 280.319 3.48734 280.689 3.95083 280.682L10.6646 280.583L10.7638 287.297C10.7707 287.76 11.152 288.13 11.6155 288.124C12.079 288.117 12.4491 287.735 12.4423 287.272L12.3307 279.719ZM1.60219 291.122L12.0936 280.316L10.8893 279.147L0.397809 289.953L1.60219 291.122Z" fill="#CDD8E8"/>
<path d="M21.5775 289.953C21.2546 290.285 21.2625 290.817 21.595 291.14C21.9276 291.463 22.459 291.455 22.7819 291.122L21.5775 289.953ZM33.5104 279.719C33.5035 279.255 33.1222 278.885 32.6587 278.892L25.1057 279.004C24.6422 279.011 24.272 279.392 24.2789 279.855C24.2857 280.319 24.667 280.689 25.1305 280.682L31.8443 280.583L31.9435 287.297C31.9504 287.76 32.3317 288.13 32.7952 288.124C33.2586 288.117 33.6288 287.735 33.622 287.272L33.5104 279.719ZM22.7819 291.122L33.2733 280.316L32.0689 279.147L21.5775 289.953L22.7819 291.122Z" fill="#CDD8E8"/>
<path d="M42.7582 289.953C42.4353 290.285 42.4431 290.817 42.7757 291.14C43.1083 291.463 43.6396 291.455 43.9625 291.122L42.7582 289.953ZM54.691 279.719C54.6842 279.255 54.3029 278.885 53.8394 278.892L46.2864 279.004C45.8229 279.011 45.4527 279.392 45.4596 279.855C45.4664 280.319 45.8477 280.689 46.3112 280.682L53.025 280.583L53.1242 287.297C53.131 287.76 53.5123 288.13 53.9758 288.124C54.4393 288.117 54.8095 287.735 54.8026 287.272L54.691 279.719ZM43.9625 291.122L54.454 280.316L53.2496 279.147L42.7582 289.953L43.9625 291.122Z" fill="#CDD8E8"/>
<path d="M63.9378 289.953C63.615 290.285 63.6228 290.817 63.9554 291.14C64.288 291.463 64.8193 291.455 65.1422 291.122L63.9378 289.953ZM75.8707 279.719C75.8639 279.255 75.4826 278.885 75.0191 278.892L67.4661 279.004C67.0026 279.011 66.6324 279.392 66.6392 279.855C66.6461 280.319 67.0274 280.689 67.4909 280.682L74.2047 280.583L74.3039 287.297C74.3107 287.76 74.692 288.13 75.1555 288.124C75.619 288.117 75.9892 287.735 75.9823 287.272L75.8707 279.719ZM65.1422 291.122L75.6337 280.316L74.4293 279.147L63.9378 289.953L65.1422 291.122Z" fill="#CDD8E8"/>
<path d="M85.1175 289.953C84.7946 290.285 84.8025 290.817 85.1351 291.14C85.4677 291.463 85.999 291.455 86.3219 291.122L85.1175 289.953ZM97.0504 279.719C97.0435 279.255 96.6623 278.885 96.1988 278.892L88.6458 279.004C88.1823 279.011 87.8121 279.392 87.8189 279.855C87.8258 280.319 88.2071 280.689 88.6706 280.682L95.3844 280.583L95.4836 287.297C95.4904 287.76 95.8717 288.13 96.3352 288.124C96.7987 288.117 97.1689 287.735 97.162 287.272L97.0504 279.719ZM86.3219 291.122L96.8134 280.316L95.609 279.147L85.1175 289.953L86.3219 291.122Z" fill="#CDD8E8"/>
<path d="M106.298 289.953C105.975 290.285 105.983 290.817 106.315 291.14C106.648 291.463 107.179 291.455 107.502 291.122L106.298 289.953ZM118.231 279.719C118.224 279.255 117.842 278.885 117.379 278.892L109.826 279.004C109.362 279.011 108.992 279.392 108.999 279.855C109.006 280.319 109.387 280.689 109.851 280.682L116.565 280.583L116.664 287.297C116.671 287.76 117.052 288.13 117.515 288.124C117.979 288.117 118.349 287.735 118.342 287.272L118.231 279.719ZM107.502 291.122L117.994 280.316L116.789 279.147L106.298 289.953L107.502 291.122Z" fill="#CDD8E8"/>
<path d="M127.478 289.953C127.155 290.285 127.163 290.817 127.495 291.14C127.828 291.463 128.359 291.455 128.682 291.122L127.478 289.953ZM139.411 279.719C139.404 279.255 139.023 278.885 138.559 278.892L131.006 279.004C130.543 279.011 130.172 279.392 130.179 279.855C130.186 280.319 130.567 280.689 131.031 280.682L137.745 280.583L137.844 287.297C137.851 287.76 138.232 288.13 138.696 288.124C139.159 288.117 139.529 287.735 139.522 287.272L139.411 279.719ZM128.682 291.122L139.174 280.316L137.969 279.147L127.478 289.953L128.682 291.122Z" fill="#CDD8E8"/>
<path d="M148.658 289.953C148.335 290.285 148.343 290.817 148.676 291.14C149.008 291.463 149.54 291.455 149.862 291.122L148.658 289.953ZM160.591 279.719C160.584 279.255 160.203 278.885 159.739 278.892L152.186 279.004C151.723 279.011 151.353 279.392 151.359 279.855C151.366 280.319 151.748 280.689 152.211 280.682L158.925 280.583L159.024 287.297C159.031 287.76 159.412 288.13 159.876 288.124C160.339 288.117 160.709 287.735 160.703 287.272L160.591 279.719ZM149.862 291.122L160.354 280.316L159.15 279.147L148.658 289.953L149.862 291.122Z" fill="#CDD8E8"/>
<path d="M169.838 289.953C169.515 290.285 169.523 290.817 169.855 291.14C170.188 291.463 170.719 291.455 171.042 291.122L169.838 289.953ZM181.771 279.719C181.764 279.255 181.382 278.885 180.919 278.892L173.366 279.004C172.902 279.011 172.532 279.392 172.539 279.855C172.546 280.319 172.927 280.689 173.391 280.682L180.105 280.583L180.204 287.297C180.211 287.76 180.592 288.13 181.055 288.124C181.519 288.117 181.889 287.735 181.882 287.272L181.771 279.719ZM171.042 291.122L181.534 280.316L180.329 279.147L169.838 289.953L171.042 291.122Z" fill="#CDD8E8"/>
<path d="M191.017 289.953C190.695 290.285 190.702 290.817 191.035 291.14C191.368 291.463 191.899 291.455 192.222 291.122L191.017 289.953ZM202.95 279.719C202.943 279.255 202.562 278.885 202.099 278.892L194.546 279.004C194.082 279.011 193.712 279.392 193.719 279.855C193.726 280.319 194.107 280.689 194.57 280.682L201.284 280.583L201.383 287.297C201.39 287.76 201.772 288.13 202.235 288.124C202.699 288.117 203.069 287.735 203.062 287.272L202.95 279.719ZM192.222 291.122L202.713 280.316L201.509 279.147L191.017 289.953L192.222 291.122Z" fill="#CDD8E8"/>
<path d="M212.198 289.953C211.875 290.285 211.883 290.817 212.215 291.14C212.548 291.463 213.079 291.455 213.402 291.122L212.198 289.953ZM224.13 279.719C224.124 279.255 223.742 278.885 223.279 278.892L215.726 279.004C215.262 279.011 214.892 279.392 214.899 279.855C214.906 280.319 215.287 280.689 215.751 280.682L222.464 280.583L222.564 287.297C222.57 287.76 222.952 288.13 223.415 288.124C223.879 288.117 224.249 287.735 224.242 287.272L224.13 279.719ZM213.402 291.122L223.893 280.316L222.689 279.147L212.198 289.953L213.402 291.122Z" fill="#CDD8E8"/>
<path d="M233.378 289.953C233.055 290.285 233.063 290.817 233.395 291.14C233.728 291.463 234.259 291.455 234.582 291.122L233.378 289.953ZM245.311 279.719C245.304 279.255 244.923 278.885 244.459 278.892L236.906 279.004C236.443 279.011 236.072 279.392 236.079 279.855C236.086 280.319 236.467 280.689 236.931 280.682L243.645 280.583L243.744 287.297C243.751 287.76 244.132 288.13 244.595 288.124C245.059 288.117 245.429 287.735 245.422 287.272L245.311 279.719ZM234.582 291.122L245.074 280.316L243.869 279.147L233.378 289.953L234.582 291.122Z" fill="#CDD8E8"/>
<path d="M254.558 289.953C254.235 290.285 254.243 290.817 254.576 291.14C254.908 291.463 255.439 291.455 255.762 291.122L254.558 289.953ZM266.491 279.719C266.484 279.255 266.103 278.885 265.639 278.892L258.086 279.004C257.623 279.011 257.253 279.392 257.259 279.855C257.266 280.319 257.647 280.689 258.111 280.682L264.825 280.583L264.924 287.297C264.931 287.76 265.312 288.13 265.776 288.124C266.239 288.117 266.609 287.735 266.602 287.272L266.491 279.719ZM255.762 291.122L266.254 280.316L265.049 279.147L254.558 289.953L255.762 291.122Z" fill="#CDD8E8"/>
<path d="M275.738 289.953C275.415 290.285 275.423 290.817 275.755 291.14C276.088 291.463 276.619 291.455 276.942 291.122L275.738 289.953ZM287.671 279.719C287.664 279.255 287.282 278.885 286.819 278.892L279.266 279.004C278.802 279.011 278.432 279.392 278.439 279.855C278.446 280.319 278.827 280.689 279.291 280.682L286.004 280.583L286.104 287.297C286.111 287.76 286.492 288.13 286.955 288.124C287.419 288.117 287.789 287.735 287.782 287.272L287.671 279.719ZM276.942 291.122L287.433 280.316L286.229 279.147L275.738 289.953L276.942 291.122Z" fill="#CDD8E8"/>
<path d="M0.397809 310.684C0.0749151 311.017 0.0827677 311.548 0.415349 311.871C0.747929 312.194 1.2793 312.186 1.60219 311.853L0.397809 310.684ZM12.3307 300.45C12.3238 299.987 11.9425 299.617 11.479 299.623L3.92603 299.735C3.46254 299.742 3.09236 300.123 3.09921 300.587C3.10606 301.05 3.48734 301.42 3.95083 301.413L10.6646 301.314L10.7638 308.028C10.7707 308.492 11.152 308.862 11.6155 308.855C12.079 308.848 12.4491 308.467 12.4423 308.003L12.3307 300.45ZM1.60219 311.853L12.0936 301.047L10.8893 299.878L0.397809 310.684L1.60219 311.853Z" fill="#CDD8E8"/>
<path d="M21.5775 310.684C21.2546 311.017 21.2625 311.548 21.595 311.871C21.9276 312.194 22.459 312.186 22.7819 311.853L21.5775 310.684ZM33.5104 300.45C33.5035 299.987 33.1222 299.617 32.6587 299.623L25.1057 299.735C24.6422 299.742 24.272 300.123 24.2789 300.587C24.2857 301.05 24.667 301.42 25.1305 301.413L31.8443 301.314L31.9435 308.028C31.9504 308.492 32.3317 308.862 32.7952 308.855C33.2586 308.848 33.6288 308.467 33.622 308.003L33.5104 300.45ZM22.7819 311.853L33.2733 301.047L32.0689 299.878L21.5775 310.684L22.7819 311.853Z" fill="#CDD8E8"/>
<path d="M42.7582 310.684C42.4353 311.017 42.4431 311.548 42.7757 311.871C43.1083 312.194 43.6396 312.186 43.9625 311.853L42.7582 310.684ZM54.691 300.45C54.6842 299.987 54.3029 299.617 53.8394 299.623L46.2864 299.735C45.8229 299.742 45.4527 300.123 45.4596 300.587C45.4664 301.05 45.8477 301.42 46.3112 301.413L53.025 301.314L53.1242 308.028C53.131 308.492 53.5123 308.862 53.9758 308.855C54.4393 308.848 54.8095 308.467 54.8026 308.003L54.691 300.45ZM43.9625 311.853L54.454 301.047L53.2496 299.878L42.7582 310.684L43.9625 311.853Z" fill="#CDD8E8"/>
<path d="M63.9378 310.684C63.615 311.017 63.6228 311.548 63.9554 311.871C64.288 312.194 64.8193 312.186 65.1422 311.853L63.9378 310.684ZM75.8707 300.45C75.8639 299.987 75.4826 299.617 75.0191 299.623L67.4661 299.735C67.0026 299.742 66.6324 300.123 66.6392 300.587C66.6461 301.05 67.0274 301.42 67.4909 301.413L74.2047 301.314L74.3039 308.028C74.3107 308.492 74.692 308.862 75.1555 308.855C75.619 308.848 75.9892 308.467 75.9823 308.003L75.8707 300.45ZM65.1422 311.853L75.6337 301.047L74.4293 299.878L63.9378 310.684L65.1422 311.853Z" fill="#CDD8E8"/>
<path d="M85.1175 310.684C84.7946 311.017 84.8025 311.548 85.1351 311.871C85.4677 312.194 85.999 312.186 86.3219 311.853L85.1175 310.684ZM97.0504 300.45C97.0435 299.987 96.6623 299.617 96.1988 299.623L88.6458 299.735C88.1823 299.742 87.8121 300.123 87.8189 300.587C87.8258 301.05 88.2071 301.42 88.6706 301.413L95.3844 301.314L95.4836 308.028C95.4904 308.492 95.8717 308.862 96.3352 308.855C96.7987 308.848 97.1689 308.467 97.162 308.003L97.0504 300.45ZM86.3219 311.853L96.8134 301.047L95.609 299.878L85.1175 310.684L86.3219 311.853Z" fill="#CDD8E8"/>
<path d="M106.298 310.684C105.975 311.017 105.983 311.548 106.315 311.871C106.648 312.194 107.179 312.186 107.502 311.853L106.298 310.684ZM118.231 300.45C118.224 299.987 117.842 299.617 117.379 299.623L109.826 299.735C109.362 299.742 108.992 300.123 108.999 300.587C109.006 301.05 109.387 301.42 109.851 301.413L116.565 301.314L116.664 308.028C116.671 308.492 117.052 308.862 117.515 308.855C117.979 308.848 118.349 308.467 118.342 308.003L118.231 300.45ZM107.502 311.853L117.994 301.047L116.789 299.878L106.298 310.684L107.502 311.853Z" fill="#CDD8E8"/>
<path d="M127.478 310.684C127.155 311.017 127.163 311.548 127.495 311.871C127.828 312.194 128.359 312.186 128.682 311.853L127.478 310.684ZM139.411 300.45C139.404 299.987 139.023 299.617 138.559 299.623L131.006 299.735C130.543 299.742 130.172 300.123 130.179 300.587C130.186 301.05 130.567 301.42 131.031 301.413L137.745 301.314L137.844 308.028C137.851 308.492 138.232 308.862 138.696 308.855C139.159 308.848 139.529 308.467 139.522 308.003L139.411 300.45ZM128.682 311.853L139.174 301.047L137.969 299.878L127.478 310.684L128.682 311.853Z" fill="#CDD8E8"/>
<path d="M148.658 310.684C148.335 311.017 148.343 311.548 148.676 311.871C149.008 312.194 149.54 312.186 149.862 311.853L148.658 310.684ZM160.591 300.45C160.584 299.987 160.203 299.617 159.739 299.623L152.186 299.735C151.723 299.742 151.353 300.123 151.359 300.587C151.366 301.05 151.748 301.42 152.211 301.413L158.925 301.314L159.024 308.028C159.031 308.492 159.412 308.862 159.876 308.855C160.339 308.848 160.709 308.467 160.703 308.003L160.591 300.45ZM149.862 311.853L160.354 301.047L159.15 299.878L148.658 310.684L149.862 311.853Z" fill="#CDD8E8"/>
<path d="M169.838 310.684C169.515 311.017 169.523 311.548 169.855 311.871C170.188 312.194 170.719 312.186 171.042 311.853L169.838 310.684ZM181.771 300.45C181.764 299.987 181.382 299.617 180.919 299.623L173.366 299.735C172.902 299.742 172.532 300.123 172.539 300.587C172.546 301.05 172.927 301.42 173.391 301.413L180.105 301.314L180.204 308.028C180.211 308.492 180.592 308.862 181.055 308.855C181.519 308.848 181.889 308.467 181.882 308.003L181.771 300.45ZM171.042 311.853L181.534 301.047L180.329 299.878L169.838 310.684L171.042 311.853Z" fill="#CDD8E8"/>
<path d="M191.017 310.684C190.695 311.017 190.702 311.548 191.035 311.871C191.368 312.194 191.899 312.186 192.222 311.853L191.017 310.684ZM202.95 300.45C202.943 299.987 202.562 299.617 202.099 299.623L194.546 299.735C194.082 299.742 193.712 300.123 193.719 300.587C193.726 301.05 194.107 301.42 194.57 301.413L201.284 301.314L201.383 308.028C201.39 308.492 201.772 308.862 202.235 308.855C202.699 308.848 203.069 308.467 203.062 308.003L202.95 300.45ZM192.222 311.853L202.713 301.047L201.509 299.878L191.017 310.684L192.222 311.853Z" fill="#CDD8E8"/>
<path d="M212.198 310.684C211.875 311.017 211.883 311.548 212.215 311.871C212.548 312.194 213.079 312.186 213.402 311.853L212.198 310.684ZM224.13 300.45C224.124 299.987 223.742 299.617 223.279 299.623L215.726 299.735C215.262 299.742 214.892 300.123 214.899 300.587C214.906 301.05 215.287 301.42 215.751 301.413L222.464 301.314L222.564 308.028C222.57 308.492 222.952 308.862 223.415 308.855C223.879 308.848 224.249 308.467 224.242 308.003L224.13 300.45ZM213.402 311.853L223.893 301.047L222.689 299.878L212.198 310.684L213.402 311.853Z" fill="#CDD8E8"/>
<path d="M233.378 310.684C233.055 311.017 233.063 311.548 233.395 311.871C233.728 312.194 234.259 312.186 234.582 311.853L233.378 310.684ZM245.311 300.45C245.304 299.987 244.923 299.617 244.459 299.623L236.906 299.735C236.443 299.742 236.072 300.123 236.079 300.587C236.086 301.05 236.467 301.42 236.931 301.413L243.645 301.314L243.744 308.028C243.751 308.492 244.132 308.862 244.595 308.855C245.059 308.848 245.429 308.467 245.422 308.003L245.311 300.45ZM234.582 311.853L245.074 301.047L243.869 299.878L233.378 310.684L234.582 311.853Z" fill="#CDD8E8"/>
<path d="M254.558 310.684C254.235 311.017 254.243 311.548 254.576 311.871C254.908 312.194 255.439 312.186 255.762 311.853L254.558 310.684ZM266.491 300.45C266.484 299.987 266.103 299.617 265.639 299.623L258.086 299.735C257.623 299.742 257.253 300.123 257.259 300.587C257.266 301.05 257.647 301.42 258.111 301.413L264.825 301.314L264.924 308.028C264.931 308.492 265.312 308.862 265.776 308.855C266.239 308.848 266.609 308.467 266.602 308.003L266.491 300.45ZM255.762 311.853L266.254 301.047L265.049 299.878L254.558 310.684L255.762 311.853Z" fill="#CDD8E8"/>
<path d="M275.738 310.684C275.415 311.017 275.423 311.548 275.755 311.871C276.088 312.194 276.619 312.186 276.942 311.853L275.738 310.684ZM287.671 300.45C287.664 299.987 287.282 299.617 286.819 299.623L279.266 299.735C278.802 299.742 278.432 300.123 278.439 300.587C278.446 301.05 278.827 301.42 279.291 301.413L286.004 301.314L286.104 308.028C286.111 308.492 286.492 308.862 286.955 308.855C287.419 308.848 287.789 308.467 287.782 308.003L287.671 300.45ZM276.942 311.853L287.433 301.047L286.229 299.878L275.738 310.684L276.942 311.853Z" fill="#CDD8E8"/>
<path d="M0.397809 331.415C0.0749151 331.748 0.0827677 332.279 0.415349 332.602C0.747929 332.925 1.2793 332.917 1.60219 332.585L0.397809 331.415ZM12.3307 321.181C12.3238 320.718 11.9425 320.348 11.479 320.355L3.92603 320.466C3.46254 320.473 3.09236 320.854 3.09921 321.318C3.10606 321.781 3.48734 322.152 3.95083 322.145L10.6646 322.045L10.7638 328.759C10.7707 329.223 11.152 329.593 11.6155 329.586C12.079 329.579 12.4491 329.198 12.4423 328.734L12.3307 321.181ZM1.60219 332.585L12.0936 321.778L10.8893 320.609L0.397809 331.415L1.60219 332.585Z" fill="#CDD8E8"/>
<path d="M21.5775 331.415C21.2546 331.748 21.2625 332.279 21.595 332.602C21.9276 332.925 22.459 332.917 22.7819 332.585L21.5775 331.415ZM33.5104 321.181C33.5035 320.718 33.1222 320.348 32.6587 320.355L25.1057 320.466C24.6422 320.473 24.272 320.854 24.2789 321.318C24.2857 321.781 24.667 322.152 25.1305 322.145L31.8443 322.045L31.9435 328.759C31.9504 329.223 32.3317 329.593 32.7952 329.586C33.2586 329.579 33.6288 329.198 33.622 328.734L33.5104 321.181ZM22.7819 332.585L33.2733 321.778L32.0689 320.609L21.5775 331.415L22.7819 332.585Z" fill="#CDD8E8"/>
<path d="M42.7582 331.415C42.4353 331.748 42.4431 332.279 42.7757 332.602C43.1083 332.925 43.6396 332.917 43.9625 332.585L42.7582 331.415ZM54.691 321.181C54.6842 320.718 54.3029 320.348 53.8394 320.355L46.2864 320.466C45.8229 320.473 45.4527 320.854 45.4596 321.318C45.4664 321.781 45.8477 322.152 46.3112 322.145L53.025 322.045L53.1242 328.759C53.131 329.223 53.5123 329.593 53.9758 329.586C54.4393 329.579 54.8095 329.198 54.8026 328.734L54.691 321.181ZM43.9625 332.585L54.454 321.778L53.2496 320.609L42.7582 331.415L43.9625 332.585Z" fill="#CDD8E8"/>
<path d="M63.9378 331.415C63.615 331.748 63.6228 332.279 63.9554 332.602C64.288 332.925 64.8193 332.917 65.1422 332.585L63.9378 331.415ZM75.8707 321.181C75.8639 320.718 75.4826 320.348 75.0191 320.355L67.4661 320.466C67.0026 320.473 66.6324 320.854 66.6392 321.318C66.6461 321.781 67.0274 322.152 67.4909 322.145L74.2047 322.045L74.3039 328.759C74.3107 329.223 74.692 329.593 75.1555 329.586C75.619 329.579 75.9892 329.198 75.9823 328.734L75.8707 321.181ZM65.1422 332.585L75.6337 321.778L74.4293 320.609L63.9378 331.415L65.1422 332.585Z" fill="#CDD8E8"/>
<path d="M85.1175 331.415C84.7946 331.748 84.8025 332.279 85.1351 332.602C85.4677 332.925 85.999 332.917 86.3219 332.585L85.1175 331.415ZM97.0504 321.181C97.0435 320.718 96.6623 320.348 96.1988 320.355L88.6458 320.466C88.1823 320.473 87.8121 320.854 87.8189 321.318C87.8258 321.781 88.2071 322.152 88.6706 322.145L95.3844 322.045L95.4836 328.759C95.4904 329.223 95.8717 329.593 96.3352 329.586C96.7987 329.579 97.1689 329.198 97.162 328.734L97.0504 321.181ZM86.3219 332.585L96.8134 321.778L95.609 320.609L85.1175 331.415L86.3219 332.585Z" fill="#CDD8E8"/>
<path d="M106.298 331.415C105.975 331.748 105.983 332.279 106.315 332.602C106.648 332.925 107.179 332.917 107.502 332.585L106.298 331.415ZM118.231 321.181C118.224 320.718 117.842 320.348 117.379 320.355L109.826 320.466C109.362 320.473 108.992 320.854 108.999 321.318C109.006 321.781 109.387 322.152 109.851 322.145L116.565 322.045L116.664 328.759C116.671 329.223 117.052 329.593 117.515 329.586C117.979 329.579 118.349 329.198 118.342 328.734L118.231 321.181ZM107.502 332.585L117.994 321.778L116.789 320.609L106.298 331.415L107.502 332.585Z" fill="#CDD8E8"/>
<path d="M127.478 331.415C127.155 331.748 127.163 332.279 127.495 332.602C127.828 332.925 128.359 332.917 128.682 332.585L127.478 331.415ZM139.411 321.181C139.404 320.718 139.023 320.348 138.559 320.355L131.006 320.466C130.543 320.473 130.172 320.854 130.179 321.318C130.186 321.781 130.567 322.152 131.031 322.145L137.745 322.045L137.844 328.759C137.851 329.223 138.232 329.593 138.696 329.586C139.159 329.579 139.529 329.198 139.522 328.734L139.411 321.181ZM128.682 332.585L139.174 321.778L137.969 320.609L127.478 331.415L128.682 332.585Z" fill="#CDD8E8"/>
<path d="M148.658 331.415C148.335 331.748 148.343 332.279 148.676 332.602C149.008 332.925 149.54 332.917 149.862 332.585L148.658 331.415ZM160.591 321.181C160.584 320.718 160.203 320.348 159.739 320.355L152.186 320.466C151.723 320.473 151.353 320.854 151.359 321.318C151.366 321.781 151.748 322.152 152.211 322.145L158.925 322.045L159.024 328.759C159.031 329.223 159.412 329.593 159.876 329.586C160.339 329.579 160.709 329.198 160.703 328.734L160.591 321.181ZM149.862 332.585L160.354 321.778L159.15 320.609L148.658 331.415L149.862 332.585Z" fill="#CDD8E8"/>
<path d="M169.838 331.415C169.515 331.748 169.523 332.279 169.855 332.602C170.188 332.925 170.719 332.917 171.042 332.585L169.838 331.415ZM181.771 321.181C181.764 320.718 181.382 320.348 180.919 320.355L173.366 320.466C172.902 320.473 172.532 320.854 172.539 321.318C172.546 321.781 172.927 322.152 173.391 322.145L180.105 322.045L180.204 328.759C180.211 329.223 180.592 329.593 181.055 329.586C181.519 329.579 181.889 329.198 181.882 328.734L181.771 321.181ZM171.042 332.585L181.534 321.778L180.329 320.609L169.838 331.415L171.042 332.585Z" fill="#CDD8E8"/>
<path d="M191.017 331.415C190.695 331.748 190.702 332.279 191.035 332.602C191.368 332.925 191.899 332.917 192.222 332.585L191.017 331.415ZM202.95 321.181C202.943 320.718 202.562 320.348 202.099 320.355L194.546 320.466C194.082 320.473 193.712 320.854 193.719 321.318C193.726 321.781 194.107 322.152 194.57 322.145L201.284 322.045L201.383 328.759C201.39 329.223 201.772 329.593 202.235 329.586C202.699 329.579 203.069 329.198 203.062 328.734L202.95 321.181ZM192.222 332.585L202.713 321.778L201.509 320.609L191.017 331.415L192.222 332.585Z" fill="#CDD8E8"/>
<path d="M212.198 331.415C211.875 331.748 211.883 332.279 212.215 332.602C212.548 332.925 213.079 332.917 213.402 332.585L212.198 331.415ZM224.13 321.181C224.124 320.718 223.742 320.348 223.279 320.355L215.726 320.466C215.262 320.473 214.892 320.854 214.899 321.318C214.906 321.781 215.287 322.152 215.751 322.145L222.464 322.045L222.564 328.759C222.57 329.223 222.952 329.593 223.415 329.586C223.879 329.579 224.249 329.198 224.242 328.734L224.13 321.181ZM213.402 332.585L223.893 321.778L222.689 320.609L212.198 331.415L213.402 332.585Z" fill="#CDD8E8"/>
<path d="M233.378 331.415C233.055 331.748 233.063 332.279 233.395 332.602C233.728 332.925 234.259 332.917 234.582 332.585L233.378 331.415ZM245.311 321.181C245.304 320.718 244.923 320.348 244.459 320.355L236.906 320.466C236.443 320.473 236.072 320.854 236.079 321.318C236.086 321.781 236.467 322.152 236.931 322.145L243.645 322.045L243.744 328.759C243.751 329.223 244.132 329.593 244.595 329.586C245.059 329.579 245.429 329.198 245.422 328.734L245.311 321.181ZM234.582 332.585L245.074 321.778L243.869 320.609L233.378 331.415L234.582 332.585Z" fill="#CDD8E8"/>
<path d="M254.558 331.415C254.235 331.748 254.243 332.279 254.576 332.602C254.908 332.925 255.439 332.917 255.762 332.585L254.558 331.415ZM266.491 321.181C266.484 320.718 266.103 320.348 265.639 320.355L258.086 320.466C257.623 320.473 257.253 320.854 257.259 321.318C257.266 321.781 257.647 322.152 258.111 322.145L264.825 322.045L264.924 328.759C264.931 329.223 265.312 329.593 265.776 329.586C266.239 329.579 266.609 329.198 266.602 328.734L266.491 321.181ZM255.762 332.585L266.254 321.778L265.049 320.609L254.558 331.415L255.762 332.585Z" fill="#CDD8E8"/>
<path d="M275.738 331.415C275.415 331.748 275.423 332.279 275.755 332.602C276.088 332.925 276.619 332.917 276.942 332.585L275.738 331.415ZM287.671 321.181C287.664 320.718 287.282 320.348 286.819 320.355L279.266 320.466C278.802 320.473 278.432 320.854 278.439 321.318C278.446 321.781 278.827 322.152 279.291 322.145L286.004 322.045L286.104 328.759C286.111 329.223 286.492 329.593 286.955 329.586C287.419 329.579 287.789 329.198 287.782 328.734L287.671 321.181ZM276.942 332.585L287.433 321.778L286.229 320.609L275.738 331.415L276.942 332.585Z" fill="#CDD8E8"/>
</g>
</svg>
