<svg width="452" height="79" viewBox="0 0 452 79" fill="none" xmlns="http://www.w3.org/2000/svg">
<g clip-path="url(#clip0_1059_10116)">
<path d="M71.7953 31.7232C71.8075 31.9122 71.7796 32.1016 71.7134 32.279C71.6471 32.4564 71.5441 32.6177 71.411 32.7524C71.2779 32.8871 71.1178 32.9921 70.9412 33.0604C70.7646 33.1288 70.5756 33.159 70.3865 33.149H43.4159C43.226 33.1588 43.0363 33.1285 42.8589 33.0603C42.6815 32.9921 42.5204 32.8875 42.386 32.7531C42.2516 32.6187 42.1469 32.4576 42.0787 32.2802C42.0105 32.1028 41.9803 31.913 41.9901 31.7232V28.668C41.9803 28.4782 42.0105 28.2885 42.0787 28.1111C42.1469 27.9337 42.2516 27.7726 42.386 27.6382C42.5204 27.5038 42.6815 27.3991 42.8589 27.3309C43.0363 27.2627 43.226 27.2325 43.4159 27.2423H70.3525C70.5416 27.2323 70.7307 27.2625 70.9073 27.3308C71.0839 27.3992 71.244 27.5042 71.3771 27.6389C71.5101 27.7735 71.6132 27.9349 71.6794 28.1123C71.7457 28.2897 71.7736 28.4791 71.7613 28.668L71.7953 31.7232Z" fill="#E74C3D"/>
<path d="M83.7274 40.5833C83.7399 40.7737 83.7116 40.9647 83.6444 41.1433C83.5771 41.3219 83.4725 41.4842 83.3376 41.6191C83.2026 41.7541 83.0403 41.8587 82.8617 41.9259C82.6831 41.9932 82.4921 42.0215 82.3016 42.009H49.0848C48.8951 42.0218 48.7047 41.9935 48.5269 41.9262C48.349 41.8588 48.1877 41.7539 48.0541 41.6186C47.9204 41.4833 47.8174 41.3208 47.7522 41.1421C47.6869 40.9635 47.661 40.7729 47.676 40.5833V37.4602C47.6635 37.2719 47.6914 37.0832 47.7578 36.9066C47.8241 36.73 47.9275 36.5696 48.0609 36.4362C48.1943 36.3028 48.3547 36.1995 48.5313 36.1331C48.7078 36.0667 48.8966 36.0389 49.0848 36.0514H82.0131C82.202 36.0391 82.3915 36.067 82.5689 36.1333C82.7463 36.1995 82.9076 36.3026 83.0423 36.4356C83.177 36.5687 83.282 36.7288 83.3503 36.9054C83.4187 37.082 83.4489 37.2711 83.4389 37.4602L83.7274 40.5833Z" fill="#E74C3D"/>
<path d="M92.8119 49.6641C92.8244 49.8545 92.7961 50.0455 92.7289 50.2241C92.6616 50.4027 92.557 50.565 92.4221 50.6999C92.2871 50.8349 92.1249 50.9395 91.9462 51.0067C91.7676 51.074 91.5766 51.1023 91.3862 51.0898H55.3348C55.145 51.1026 54.9547 51.0743 54.7769 51.007C54.599 50.9396 54.4377 50.8347 54.304 50.6994C54.1703 50.5641 54.0674 50.4016 54.0022 50.2229C53.9369 50.0443 53.911 49.8537 53.926 49.6641V46.5579C53.911 46.3683 53.9369 46.1777 54.0022 45.999C54.0674 45.8204 54.1703 45.6578 54.304 45.5226C54.4377 45.3873 54.599 45.2823 54.7769 45.215C54.9547 45.1476 55.145 45.1194 55.3348 45.1321H91.3862C91.5766 45.1197 91.7676 45.148 91.9462 45.2152C92.1249 45.2825 92.2871 45.3871 92.4221 45.522C92.557 45.657 92.6616 45.8192 92.7289 45.9979C92.7961 46.1765 92.8244 46.3675 92.8119 46.5579V49.6641Z" fill="#E74C3D"/>
<path d="M92.8119 58.7617C92.8219 58.9508 92.7917 59.1398 92.7234 59.3164C92.655 59.493 92.5501 59.6531 92.4154 59.7862C92.2807 59.9193 92.1193 60.0223 91.9419 60.0886C91.7645 60.1548 91.5751 60.1827 91.3862 60.1705H55.3348C55.1466 60.183 54.9578 60.1551 54.7812 60.0888C54.6046 60.0224 54.4443 59.919 54.3109 59.7856C54.1775 59.6522 54.0741 59.4919 54.0077 59.3153C53.9414 59.1387 53.9135 58.9499 53.926 58.7617V55.6386C53.911 55.449 53.9369 55.2584 54.0022 55.0797C54.0674 54.901 54.1703 54.7385 54.304 54.6032C54.4377 54.4679 54.599 54.363 54.7769 54.2957C54.9547 54.2283 55.145 54.2 55.3348 54.2128H91.3862C91.5766 54.2003 91.7676 54.2287 91.9462 54.2959C92.1249 54.3631 92.2871 54.4677 92.4221 54.6027C92.557 54.7377 92.6616 54.8999 92.7289 55.0785C92.7961 55.2572 92.8244 55.4481 92.8119 55.6386V58.7617Z" fill="#E74C3D"/>
<path d="M83.73 67.5539C83.7397 67.7437 83.7095 67.9334 83.6413 68.1108C83.5731 68.2882 83.4684 68.4493 83.334 68.5837C83.1997 68.7181 83.0386 68.8228 82.8612 68.891C82.6838 68.9592 82.494 68.9894 82.3042 68.9797H49.0874C48.8983 68.9896 48.7092 68.9595 48.5326 68.8911C48.3561 68.8228 48.1959 68.7178 48.0629 68.5831C47.9298 68.4484 47.8267 68.287 47.7605 68.1097C47.6943 67.9323 47.6663 67.7429 47.6786 67.5539V64.4308C47.6663 64.2419 47.6943 64.0524 47.7605 63.875C47.8267 63.6977 47.9298 63.5363 48.0629 63.4016C48.1959 63.2669 48.3561 63.1619 48.5326 63.0936C48.7092 63.0252 48.8983 62.9951 49.0874 63.005H82.0156C82.2055 62.9953 82.3952 63.0255 82.5726 63.0937C82.75 63.1619 82.9111 63.2666 83.0455 63.401C83.1799 63.5354 83.2846 63.6965 83.3528 63.8739C83.421 64.0513 83.4512 64.241 83.4414 64.4308L83.73 67.5539Z" fill="#E74C3D"/>
<path d="M71.7953 76.6346C71.8076 76.8236 71.7797 77.013 71.7134 77.1904C71.6472 77.3677 71.5441 77.5291 71.4111 77.6638C71.278 77.7985 71.1179 77.9035 70.9413 77.9718C70.7647 78.0402 70.5756 78.0703 70.3866 78.0604H43.4159C43.2261 78.0701 43.0364 78.0399 42.859 77.9717C42.6816 77.9035 42.5205 77.7988 42.3861 77.6644C42.2517 77.5301 42.147 77.3689 42.0788 77.1915C42.0106 77.0141 41.9804 76.8244 41.9901 76.6346V73.5115C41.9802 73.3224 42.0103 73.1333 42.0787 72.9568C42.147 72.7802 42.252 72.6201 42.3867 72.487C42.5214 72.3539 42.6828 72.2509 42.8602 72.1846C43.0375 72.1184 43.227 72.0905 43.4159 72.1027H70.3526C70.5408 72.0902 70.7296 72.1181 70.9062 72.1844C71.0828 72.2508 71.2431 72.3542 71.3765 72.4876C71.5099 72.621 71.6133 72.7813 71.6797 72.9579C71.746 73.1345 71.7739 73.3233 71.7614 73.5115L71.7953 76.6346Z" fill="#E74C3D"/>
<path d="M20.7089 4.56585C20.6989 4.75494 20.7291 4.944 20.7974 5.12058C20.8658 5.29717 20.9708 5.45728 21.1055 5.59037C21.2402 5.72346 21.4015 5.82651 21.5789 5.89274C21.7563 5.95898 21.9457 5.98688 22.1347 5.97464H49.0883C49.2779 5.9897 49.4685 5.96373 49.6472 5.89849C49.8259 5.83326 49.9884 5.7303 50.1237 5.59661C50.259 5.46293 50.3639 5.30167 50.4313 5.12379C50.4986 4.94592 50.5269 4.75562 50.5141 4.56585V1.44276C50.5266 1.25229 50.4983 1.06136 50.431 0.882712C50.3638 0.704069 50.2592 0.541835 50.1242 0.406865C49.9892 0.271895 49.827 0.167296 49.6484 0.100063C49.4697 0.032829 49.2788 0.00451379 49.0883 0.0170037H22.1347C21.9448 0.00725041 21.7551 0.0374302 21.5777 0.105631C21.4003 0.173832 21.2392 0.278509 21.1048 0.4129C20.9704 0.54729 20.8658 0.708396 20.7975 0.885794C20.7293 1.06319 20.6991 1.25295 20.7089 1.44276V4.56585Z" fill="#E74C3D"/>
<path d="M9.07713 13.6295C9.06462 13.8178 9.09248 14.0065 9.15886 14.1831C9.22523 14.3597 9.32858 14.5201 9.46198 14.6535C9.59538 14.7869 9.75575 14.8902 9.93234 14.9566C10.1089 15.023 10.2977 15.0508 10.4859 15.0383H43.4142C43.6032 15.0506 43.7926 15.0227 43.97 14.9564C44.1473 14.8902 44.3087 14.7871 44.4434 14.6541C44.5781 14.521 44.6831 14.3609 44.7514 14.1843C44.8198 14.0077 44.8499 13.8186 44.84 13.6295V10.5064C44.8497 10.3166 44.8195 10.1269 44.7513 9.94951C44.6831 9.77211 44.5784 9.611 44.444 9.47661C44.3096 9.34222 44.1485 9.23755 43.9711 9.16935C43.7937 9.10114 43.604 9.07094 43.4142 9.08069H10.4859C10.2968 9.07071 10.1078 9.10089 9.93119 9.16924C9.7546 9.23759 9.59449 9.34257 9.4614 9.47726C9.32831 9.61195 9.22526 9.77331 9.15903 9.9507C9.09279 10.1281 9.06488 10.3175 9.07713 10.5064V13.6295Z" fill="#E74C3D"/>
<path d="M-0.00099243 22.7102C-0.0135008 22.8985 0.0143586 23.0872 0.0807327 23.2638C0.147107 23.4404 0.250458 23.6008 0.383858 23.7342C0.517257 23.8676 0.677621 23.9709 0.854214 24.0373C1.03081 24.1037 1.21955 24.1315 1.40778 24.119H37.4592C37.6474 24.1315 37.8361 24.1037 38.0127 24.0373C38.1893 23.9709 38.3497 23.8676 38.4831 23.7342C38.6165 23.6008 38.7198 23.4404 38.7862 23.2638C38.8526 23.0872 38.8805 22.8985 38.8679 22.7102V19.5872C38.8802 19.3982 38.8523 19.2088 38.786 19.0314C38.7198 18.854 38.6168 18.6926 38.4837 18.558C38.3506 18.4233 38.1905 18.3183 38.0139 18.2499C37.8373 18.1816 37.6483 18.1514 37.4592 18.1614H1.40778C1.2187 18.1514 1.02963 18.1816 0.853049 18.2499C0.676463 18.3183 0.516364 18.4233 0.383275 18.558C0.250186 18.6926 0.147134 18.854 0.080901 19.0314C0.0146682 19.2088 -0.0132402 19.3982 -0.00099243 19.5872V22.7102Z" fill="#E74C3D"/>
<path d="M-0.00109801 31.7232C-0.0133458 31.9122 0.0145626 32.1016 0.0807955 32.279C0.147028 32.4564 0.250081 32.6177 0.383169 32.7524C0.516258 32.8871 0.676357 32.9921 0.852943 33.0604C1.02953 33.1288 1.21859 33.159 1.40768 33.149H37.4591C37.6482 33.159 37.8372 33.1288 38.0138 33.0604C38.1904 32.9921 38.3505 32.8871 38.4836 32.7524C38.6167 32.6177 38.7197 32.4564 38.7859 32.279C38.8522 32.1016 38.8801 31.9122 38.8678 31.7232V28.668C38.8801 28.4791 38.8522 28.2897 38.7859 28.1123C38.7197 27.9349 38.6167 27.7735 38.4836 27.6389C38.3505 27.5042 38.1904 27.3992 38.0138 27.3308C37.8372 27.2625 37.6482 27.2323 37.4591 27.2423H1.40768C1.21859 27.2323 1.02953 27.2625 0.852943 27.3308C0.676357 27.3992 0.516258 27.5042 0.383169 27.6389C0.250081 27.7735 0.147028 27.9349 0.0807955 28.1123C0.0145626 28.2897 -0.0133458 28.4791 -0.00109801 28.668V31.7232Z" fill="#E74C3D"/>
<path d="M9.07838 40.5833C9.06331 40.7729 9.08929 40.9635 9.15452 41.1421C9.21975 41.3208 9.3227 41.4833 9.45639 41.6186C9.59007 41.7539 9.75135 41.8588 9.92922 41.9262C10.1071 41.9935 10.2974 42.0218 10.4872 42.009H43.4154C43.6059 42.0215 43.7968 41.9932 43.9755 41.9259C44.1541 41.8587 44.3164 41.7541 44.4513 41.6191C44.5863 41.4842 44.6909 41.3219 44.7581 41.1433C44.8254 40.9647 44.8537 40.7737 44.8412 40.5833V37.4602C44.8512 37.2711 44.821 37.082 44.7526 36.9054C44.6843 36.7288 44.5793 36.5687 44.4446 36.4356C44.3099 36.3026 44.1486 36.1995 43.9712 36.1333C43.7938 36.067 43.6044 36.0391 43.4154 36.0514H10.4872C10.2989 36.0389 10.1102 36.0667 9.93358 36.1331C9.75699 36.1995 9.59663 36.3028 9.46323 36.4362C9.32983 36.5696 9.22648 36.73 9.1601 36.9066C9.09373 37.0832 9.06587 37.2719 9.07838 37.4602V40.5833Z" fill="#E74C3D"/>
<path d="M20.7099 49.6639C20.6974 49.8544 20.7257 50.0453 20.793 50.224C20.8602 50.4026 20.9648 50.5648 21.0998 50.6998C21.2347 50.8348 21.397 50.9394 21.5756 51.0066C21.7543 51.0739 21.9452 51.1022 22.1357 51.0897H49.0893C49.2798 51.1022 49.4707 51.0739 49.6494 51.0066C49.828 50.9394 49.9903 50.8348 50.1252 50.6998C50.2602 50.5648 50.3648 50.4026 50.432 50.224C50.4993 50.0453 50.5276 49.8544 50.5151 49.6639V46.5578C50.5276 46.3673 50.4993 46.1764 50.432 45.9977C50.3648 45.8191 50.2602 45.6569 50.1252 45.5219C49.9903 45.3869 49.828 45.2823 49.6494 45.2151C49.4707 45.1479 49.2798 45.1195 49.0893 45.132H22.1357C21.9452 45.1195 21.7543 45.1479 21.5756 45.2151C21.397 45.2823 21.2347 45.3869 21.0998 45.5219C20.9648 45.6569 20.8602 45.8191 20.793 45.9977C20.7257 46.1764 20.6974 46.3673 20.7099 46.5578V49.6639Z" fill="#E74C3D"/>
<path d="M128.288 56.7758C126.879 57.0013 125.453 57.0922 124.027 57.0474C121.101 57.2055 118.181 56.6216 115.541 55.35C114.601 54.7384 113.791 53.9464 113.159 53.02C112.527 52.0935 112.084 51.051 111.858 49.9525C111.202 46.3018 110.917 42.594 111.009 38.8859C110.917 35.1778 111.202 31.47 111.858 27.8193C112.027 26.7008 112.446 25.6349 113.084 24.7006C113.721 23.7662 114.561 22.9873 115.541 22.4218C117.261 21.2902 120.09 20.7244 124.027 20.7244C125.358 20.6762 126.69 20.773 127.999 21.013C129.115 21.2862 130.25 21.4735 131.394 21.5731V27.8193C128.559 27.5307 126.573 27.2422 125.708 27.2422C124.081 27.1978 122.457 27.3922 120.887 27.8193C120.039 28.1078 119.462 29.2281 119.19 30.6538C118.892 33.2905 118.796 35.946 118.901 38.5974C118.796 41.2543 118.892 43.9155 119.19 46.5579C119.26 47.1224 119.448 47.666 119.74 48.1541C120.032 48.6422 120.423 49.0639 120.887 49.3924C122.429 49.9491 124.079 50.1408 125.708 49.9525C127.71 49.8998 129.706 49.7127 131.682 49.3924V55.6386C130.648 56.2631 129.489 56.6514 128.288 56.7758Z" fill="black"/>
<path d="M140.487 55.35C139.601 54.7812 138.842 54.0352 138.257 53.1589C137.673 52.2826 137.277 51.295 137.092 50.258C136.545 46.4994 136.357 42.6971 136.532 38.9029C136.497 35.1101 136.684 31.3186 137.092 27.5477C137.2 26.4863 137.565 25.4673 138.157 24.5797C138.749 23.6921 139.549 22.9629 140.487 22.4557C142.184 21.3185 145.307 21.0469 149.568 21.0469C152.66 20.8786 155.753 21.3584 158.648 22.4557C159.535 23.0245 160.294 23.7706 160.878 24.6468C161.462 25.5231 161.859 26.5108 162.043 27.5477C162.601 31.3053 162.789 35.1086 162.603 38.9029C162.647 42.6958 162.46 46.4878 162.043 50.258C161.879 51.3016 161.49 52.2971 160.904 53.1761C160.318 54.0551 159.548 54.7967 158.648 55.35C156.663 56.4872 153.828 56.7758 149.568 56.7758C145.307 57.0474 141.913 56.4872 140.487 55.35ZM153.251 49.664C153.629 49.3603 153.929 48.971 154.127 48.5283C154.325 48.0856 154.414 47.6021 154.388 47.118C154.683 44.3846 154.78 41.6333 154.677 38.8859C154.78 36.1385 154.683 33.3872 154.388 30.6538C154.117 29.2281 153.828 28.3794 153.251 28.1078C150.856 27.3378 148.28 27.3378 145.885 28.1078C145.507 28.4115 145.206 28.8008 145.009 29.2435C144.811 29.6862 144.721 30.1696 144.747 30.6538C144.452 33.3872 144.356 36.1385 144.459 38.8859C144.356 41.6333 144.452 44.3846 144.747 47.118C145.019 48.5437 145.307 49.3924 145.885 49.664C147.063 50.0933 148.314 50.2893 149.568 50.2411C150.825 50.4075 152.104 50.2071 153.251 49.664Z" fill="black"/>
<path d="M186.467 56.4873L176.283 36.34H175.995V56.4873H168.34V21.2846H176.283L185.924 39.7346H186.213V21.2846H193.885V56.4873H186.467Z" fill="black"/>
<path d="M205.767 56.4872V28.3284H197.535V21.5391H221.943V28.3284H213.711V56.4363L205.767 56.4872Z" fill="black"/>
<path d="M225.645 56.4873V21.2846H246.641V27.8193H233.299V35.2027H244.655V41.7205H233.299V49.664H246.641V56.1988H225.645V56.4873Z" fill="black"/>
<path d="M270.491 56.4873L260.307 36.34H260.018V56.4873H252.312V21.2846H260.273L269.914 39.7346H270.202V21.2846H277.857V56.4873H270.491Z" fill="black"/>
<path d="M290.055 56.4872V28.3284H281.84V21.5391H306.281V28.3284H298.049V56.4363L290.055 56.4872Z" fill="black"/>
<path d="M309.935 56.1987V49.9525C314.196 50.2411 317.03 50.5296 319.016 50.5296C320.156 50.6021 321.3 50.5049 322.411 50.2411C323.259 49.9525 323.819 49.9525 324.108 49.664C324.284 49.5339 324.427 49.3653 324.527 49.1711C324.627 48.9768 324.681 48.7622 324.685 48.5437V46.5578C324.685 45.4206 324.685 44.555 324.397 44.2834C324.18 43.8589 323.893 43.4743 323.548 43.1462C322.856 42.7505 322.07 42.551 321.273 42.5691L315.587 41.7204C314.509 41.6543 313.462 41.3375 312.528 40.7954C311.594 40.2532 310.799 39.5006 310.207 38.5973C309.048 36.4228 308.552 33.956 308.781 31.5025C308.729 29.16 309.217 26.837 310.207 24.7131C311.112 23.2284 312.522 22.1196 314.179 21.5901C316.295 20.9764 318.493 20.6902 320.696 20.7414C324.046 20.7162 327.386 21.0981 330.643 21.8786V28.1248C327.52 27.8363 324.957 27.5477 322.411 27.5477C320.777 27.4545 319.139 27.6499 317.573 28.1248C317.013 28.3964 317.013 28.6849 316.725 29.245C316.482 29.8829 316.389 30.5683 316.453 31.2479C316.364 31.9222 316.458 32.608 316.725 33.2338C317.013 33.5053 317.013 33.7939 317.302 34.0824C317.59 34.371 318.15 34.354 319.288 34.6426L325.245 35.4912C326.436 35.6611 327.587 36.0465 328.64 36.6284C329.599 37.2764 330.376 38.1587 330.897 39.1914C331.683 41.2732 332.068 43.4844 332.035 45.7092C332.152 48.2468 331.669 50.7764 330.626 53.0926C329.842 54.6336 328.528 55.8393 326.926 56.4872C324.907 57.1257 322.795 57.4127 320.679 57.3359C316.47 57.0474 312.77 56.4872 309.935 56.1987Z" fill="black"/>
<path d="M342.861 56.4872V28.3284H334.629V21.5391H359.037V28.3284H350.804V56.4363L342.861 56.4872Z" fill="black"/>
<path d="M380.323 56.4873L378.625 49.3925H368.119L366.421 56.4873H358.461L367.83 21.2846H378.897L388.266 56.4873H380.323ZM373.228 28.668L369.545 42.8577H376.639L373.228 28.668Z" fill="black"/>
<path d="M408.124 56.7757C406.715 57.0012 405.289 57.0922 403.863 57.0473C400.937 57.2054 398.017 56.6216 395.377 55.35C394.397 54.7844 393.557 54.0055 392.92 53.0712C392.282 52.1368 391.863 51.0709 391.693 49.9525C391.038 46.3017 390.753 42.5939 390.845 38.8858C390.753 35.1778 391.038 31.47 391.693 27.8192C391.863 26.7008 392.282 25.6349 392.92 24.7005C393.557 23.7661 394.397 22.9873 395.377 22.4217C397.085 21.2901 399.914 20.7244 403.863 20.7244C405.194 20.6767 406.525 20.7734 407.835 21.0129C408.951 21.2861 410.086 21.4734 411.23 21.573V27.8192C408.395 27.5307 406.392 27.2421 405.544 27.2421C403.917 27.1977 402.293 27.3921 400.723 27.8192C400.255 28.1438 399.861 28.5645 399.569 29.0533C399.276 29.5421 399.091 30.0877 399.026 30.6537C398.728 33.2904 398.632 35.946 398.737 38.5973C398.632 41.2543 398.728 43.9154 399.026 46.5578C399.096 47.1223 399.283 47.666 399.576 48.154C399.868 48.6421 400.259 49.0639 400.723 49.3923C402.265 49.949 403.915 50.1407 405.544 49.9525C407.54 49.9008 409.53 49.7136 411.501 49.3923V55.6385C410.454 56.2206 409.31 56.606 408.124 56.7757Z" fill="black"/>
<path d="M434.536 56.4873L426.593 42.009H424.319V56.4873H416.375V21.2846H424.319V35.2027H426.593L434.536 21.2846H443.023L432.839 38.0373L443.023 56.1988L434.536 56.4873Z" fill="black"/>
</g>
<defs>
<clipPath id="clip0_1059_10116">
<rect width="452" height="78.0604" fill="white"/>
</clipPath>
</defs>
</svg>
