<svg width="200" height="30" viewBox="0 0 200 30" fill="none" xmlns="http://www.w3.org/2000/svg">
<g clip-path="url(#clip0_2357_649)">
<mask id="mask0_2357_649" style="mask-type:luminance" maskUnits="userSpaceOnUse" x="0" y="0" width="35" height="30">
<path d="M34.9196 0.0554047H0.12207V29.9269H34.9196V0.0554047Z" fill="white"/>
</mask>
<g mask="url(#mask0_2357_649)">
<path d="M17.949 0.0553589H9.03624C8.37307 0.0553589 7.83545 0.60347 7.83545 1.2796C7.83545 1.95572 8.37307 2.50383 9.03624 2.50383H17.949C18.612 2.50383 19.1497 1.95572 19.1497 1.2796C19.1497 0.60347 18.612 0.0553589 17.949 0.0553589Z" fill="#7C4DFF"/>
<path d="M17.949 17.1966H9.03624C8.37307 17.1966 7.83545 17.7447 7.83545 18.4208C7.83545 19.0969 8.37307 19.6451 9.03624 19.6451H17.949C18.612 19.6451 19.1497 19.0969 19.1497 18.4208C19.1497 17.7447 18.612 17.1966 17.949 17.1966Z" fill="#7C4DFF"/>
<path d="M15.8936 3.48328H4.92345C4.26026 3.48328 3.72266 4.03139 3.72266 4.70751C3.72266 5.38364 4.26026 5.93175 4.92345 5.93175H15.8936C16.5567 5.93175 17.0944 5.38364 17.0944 4.70751C17.0944 4.03139 16.5567 3.48328 15.8936 3.48328Z" fill="#7C4DFF"/>
<path d="M15.8936 13.7669H4.92345C4.26026 13.7669 3.72266 14.315 3.72266 14.9911C3.72266 15.6672 4.26026 16.2154 4.92345 16.2154H15.8936C16.5567 16.2154 17.0944 15.6672 17.0944 14.9911C17.0944 14.315 16.5567 13.7669 15.8936 13.7669Z" fill="#7C4DFF"/>
<path d="M13.664 6.91109H1.32286C0.659683 6.91109 0.12207 7.4592 0.12207 8.13532C0.12207 8.81145 0.659683 9.35956 1.32286 9.35956H13.664C14.3273 9.35956 14.8648 8.81145 14.8648 8.13532C14.8648 7.4592 14.3273 6.91109 13.664 6.91109Z" fill="#7C4DFF"/>
<path d="M14.8648 11.5641C14.8648 10.8915 14.3251 10.339 13.664 10.339H1.32286C0.663604 10.339 0.12207 10.8896 0.12207 11.5641C0.12207 12.2368 0.661793 12.7893 1.32286 12.7893H13.6658C14.3251 12.7893 14.8666 12.2386 14.8666 11.5641H14.8648Z" fill="#7C4DFF"/>
<path d="M26.0069 27.4766H17.0943C16.4311 27.4766 15.8936 28.0246 15.8936 28.7009C15.8936 29.377 16.4311 29.9251 17.0943 29.9251H26.0069C26.6701 29.9251 27.2078 29.377 27.2078 28.7009C27.2078 28.0246 26.6701 27.4766 26.0069 27.4766Z" fill="#7C4DFF"/>
<path d="M26.0069 10.3371H17.0943C16.4311 10.3371 15.8936 10.8852 15.8936 11.5613C15.8936 12.2375 16.4311 12.7856 17.0943 12.7856H26.0069C26.6701 12.7856 27.2078 12.2375 27.2078 11.5613C27.2078 10.8852 26.6701 10.3371 26.0069 10.3371Z" fill="#7C4DFF"/>
<path d="M30.12 24.0486H19.15C18.4907 24.0486 17.9492 24.5994 17.9492 25.2739C17.9492 25.9465 18.4888 26.4991 19.15 26.4991H30.12C30.7793 26.4991 31.3208 25.9483 31.3208 25.2739C31.3208 24.6012 30.7812 24.0486 30.12 24.0486Z" fill="#7C4DFF"/>
<path d="M30.12 13.7649H19.15C18.4868 13.7649 17.9492 14.3131 17.9492 14.9893C17.9492 15.6654 18.4868 16.2135 19.15 16.2135H30.12C30.7833 16.2135 31.3208 15.6654 31.3208 14.9893C31.3208 14.3131 30.7833 13.7649 30.12 13.7649Z" fill="#7C4DFF"/>
<path d="M33.7211 20.6208H21.378C20.7188 20.6208 20.1772 21.1715 20.1772 21.8459C20.1772 22.5186 20.717 23.0711 21.378 23.0711H33.7211C34.3803 23.0711 34.9218 22.5205 34.9218 21.8459C34.9218 21.1733 34.3821 20.6208 33.7211 20.6208Z" fill="#7C4DFF"/>
<path d="M33.7207 17.1929H21.3795C20.7164 17.1929 20.1787 17.741 20.1787 18.4172C20.1787 19.0933 20.7164 19.6414 21.3795 19.6414H33.7207C34.3838 19.6414 34.9215 19.0933 34.9215 18.4172C34.9215 17.741 34.3838 17.1929 33.7207 17.1929Z" fill="#7C4DFF"/>
</g>
<path d="M187.094 21.4815V6.92299H190.649V12.5746L195.551 6.92299H199.614L194.535 12.8685L199.923 21.4815H196.126L192.328 15.1969L190.649 17.0733V21.4815H187.094Z" fill="#253143"/>
<path d="M180.988 21.7075C178.5 21.7075 176.601 21.0594 175.291 19.7634C173.995 18.4522 173.347 16.6361 173.347 14.3152C173.347 11.8888 173.981 10.0125 175.246 8.68624C176.527 7.35999 178.434 6.69687 180.966 6.69687C181.833 6.69687 182.606 6.76469 183.284 6.90033C183.975 7.03596 184.638 7.21681 185.272 7.44287V10.6304C183.991 10.0878 182.643 9.81655 181.231 9.81655C179.758 9.81655 178.677 10.1782 177.984 10.9017C177.308 11.6251 176.968 12.7629 176.968 14.3152C176.968 15.7921 177.329 16.8773 178.051 17.5705C178.773 18.2638 179.846 18.6104 181.274 18.6104C181.967 18.6104 182.651 18.5502 183.328 18.4295C184.005 18.2939 184.66 18.0905 185.293 17.8192V21.0293C184.675 21.2404 184.02 21.4061 183.328 21.5266C182.636 21.6473 181.856 21.7075 180.988 21.7075Z" fill="#253143"/>
<path d="M158.49 21.4814L163.922 6.92297H167.765L173.197 21.4814H169.487L168.206 18.1809H163.459L162.2 21.4814H158.49ZM163.945 15.4907H167.72L165.821 10.427L163.945 15.4907Z" fill="#253143"/>
<path d="M151.485 21.4814V9.72617H147.311V6.92297H159.212V9.72617H155.039V21.4814H151.485Z" fill="#253143"/>
<path d="M140.903 21.7075C139.961 21.7075 139.079 21.6322 138.253 21.4814C137.444 21.3458 136.745 21.1424 136.156 20.8711V17.774C136.803 18.0604 137.517 18.294 138.298 18.4748C139.093 18.6557 139.844 18.7461 140.55 18.7461C141.433 18.7461 142.088 18.6633 142.516 18.4974C142.957 18.3317 143.177 17.97 143.177 17.4123C143.177 17.0355 143.067 16.7341 142.847 16.5081C142.641 16.282 142.294 16.086 141.809 15.9203C141.337 15.7395 140.69 15.5285 139.865 15.2873C138.894 14.9858 138.121 14.6544 137.547 14.2927C136.974 13.9158 136.56 13.4637 136.311 12.9363C136.06 12.4088 135.935 11.7607 135.935 10.9921C135.935 9.60559 136.421 8.54309 137.392 7.80461C138.365 7.06613 139.799 6.6969 141.698 6.6969C142.523 6.6969 143.325 6.76472 144.105 6.90036C144.885 7.02093 145.519 7.1641 146.004 7.32987V10.4496C145.372 10.1934 144.73 10.005 144.083 9.88439C143.45 9.76383 142.832 9.70354 142.228 9.70354C141.433 9.70354 140.785 9.77891 140.285 9.92961C139.799 10.0803 139.556 10.4269 139.556 10.9695C139.556 11.286 139.645 11.5422 139.822 11.7381C139.999 11.919 140.299 12.0848 140.727 12.2355C141.168 12.3862 141.764 12.567 142.516 12.778C143.679 13.0945 144.569 13.4788 145.187 13.931C145.805 14.368 146.233 14.8804 146.468 15.4682C146.704 16.0408 146.821 16.6889 146.821 17.4123C146.821 18.6934 146.335 19.7332 145.364 20.532C144.393 21.3157 142.906 21.7075 140.903 21.7075Z" fill="#253143"/>
<path d="M127.484 21.4814V9.72617H123.311V6.92297H135.212V9.72617H131.039V21.4814H127.484Z" fill="#253143"/>
<path d="M109.272 21.4814V6.92297H112.319L118.369 15.6265V6.92297H121.946V21.4814H118.877L112.827 12.8006V21.4814H109.272Z" fill="#253143"/>
<path d="M97.0889 21.4815V6.92299H107.577V9.72618H100.644V12.778H106.76V15.6265H100.644V18.6784H107.577V21.4815H97.0889Z" fill="#253143"/>
<path d="M87.7641 21.4815V9.72618H83.5908V6.92299H95.4923V9.72618H91.319V21.4815H87.7641Z" fill="#253143"/>
<path d="M69.5518 21.4815V6.92299H72.599L78.6491 15.6265V6.92299H82.2262V21.4815H79.157L73.1068 12.8006V21.4815H69.5518Z" fill="#253143"/>
<path d="M60.6514 21.7075C58.3402 21.7075 56.5811 21.1046 55.3741 19.899C54.1669 18.6934 53.5635 16.817 53.5635 14.27C53.5635 11.5723 54.1669 9.6357 55.3741 8.46016C56.5811 7.28463 58.3402 6.69687 60.6514 6.69687C62.9625 6.69687 64.7216 7.28463 65.9287 8.46016C67.1358 9.6357 67.7393 11.5723 67.7393 14.27C67.7393 16.817 67.1358 18.6934 65.9287 19.899C64.7216 21.1046 62.9625 21.7075 60.6514 21.7075ZM60.6514 18.6104C61.8437 18.6104 62.7123 18.2638 63.2569 17.5705C63.8163 16.8622 64.096 15.762 64.096 14.27C64.096 12.6423 63.8163 11.497 63.2569 10.8338C62.7123 10.1556 61.8437 9.81655 60.6514 9.81655C59.4443 9.81655 58.561 10.1556 58.0016 10.8338C57.457 11.497 57.1847 12.6423 57.1847 14.27C57.1847 15.762 57.457 16.8622 58.0016 17.5705C58.561 18.2638 59.4443 18.6104 60.6514 18.6104Z" fill="#253143"/>
<path d="M48.1142 21.7075C45.6264 21.7075 43.7275 21.0595 42.4173 19.7634C41.1219 18.4522 40.4741 16.6361 40.4741 14.3152C40.4741 11.8888 41.1071 10.0125 42.3732 8.68625C43.6538 7.36002 45.5601 6.6969 48.092 6.6969C48.9606 6.6969 49.7334 6.76472 50.4105 6.90036C51.1024 7.03599 51.7648 7.21684 52.3979 7.4429V10.6304C51.1171 10.0879 49.7702 9.81657 48.357 9.81657C46.885 9.81657 45.803 10.1783 45.1111 10.9017C44.4339 11.6251 44.0955 12.7629 44.0955 14.3152C44.0955 15.7922 44.4561 16.8773 45.1774 17.5706C45.8987 18.2638 46.9733 18.6105 48.4012 18.6105C49.0931 18.6105 49.7775 18.5502 50.4547 18.4296C51.1318 18.294 51.787 18.0905 52.4199 17.8192V21.0293C51.8017 21.2404 51.1465 21.4061 50.4547 21.5266C49.7628 21.6473 48.9826 21.7075 48.1142 21.7075Z" fill="#253143"/>
</g>
<defs>
<clipPath id="clip0_2357_649">
<rect width="200" height="30" fill="white"/>
</clipPath>
</defs>
</svg>
